<svg data-v-0dd9719b="" version="1.0" xmlns="http://www.w3.org/2000/svg" xmlns:xlink="http://www.w3.org/1999/xlink" width="100%" height="100%" viewBox="0 0 340.000000 250.000000" preserveAspectRatio="xMidYMid meet" color-interpolation-filters="sRGB" style="margin: auto;"> <rect data-v-0dd9719b="" x="0" y="0" width="100%" height="100%" fill="#fff" fill-opacity="1" class="background"></rect> <rect data-v-0dd9719b="" x="0" y="0" width="100%" height="100%" fill="url(#watermark)" fill-opacity="1" class="watermarklayer"></rect> <g data-v-0dd9719b="" fill="#333" class="icon-text-wrapper icon-svg-group iconsvg" transform="translate(48.25999450683594,95.01139640808105)"><g class="iconsvg-imagesvg" transform="translate(0,0)"><g><rect fill="#333" fill-opacity="0" stroke-width="2" x="0" y="0" width="60" height="59.977208660708925" class="image-rect"></rect> <svg x="0" y="0" width="60" height="59.977208660708925" filtersec="colorsb540818409" class="image-svg-svg primary" style="overflow: visible;"><svg xmlns="http://www.w3.org/2000/svg" viewBox="-0.024392234161496162 -0.00439166696742177 206.4888916015625 206.41061401367188"><title>资源 7</title><g fill-rule="evenodd"><path d="M176.24 176.18a102.91 102.91 0 0 1-76.44 30.16c-8.75-.29-10.94-10.72-6.79-17 17.92-27.07 75.72-28.09 101.23-60a56.23 56.23 0 0 0 10.57-21.88c.56-2.21 1.26-4.67 1.63-6.42a102.92 102.92 0 0 1-30.2 75.1z" fill="#03b2de" opacity=".48"></path><path d="M176.18 176.24a102.92 102.92 0 0 0 30.16-76.44c-.29-8.76-10.73-10.94-17-6.79C168.21 107 163 145.3 146.5 173.56c-9.44 16.21-25.92 31.19-45.38 32.82a102.78 102.78 0 0 0 75.06-30.14z" fill="#8e03ff" opacity=".48"></path><path d="M30.22 30.28A102.94 102.94 0 0 1 106.66.12c8.77.29 10.94 10.73 6.79 17-17.91 27.07-75.72 28.09-101.23 60A56.23 56.23 0 0 0 1.65 99c-.56 2.17-1.25 4.63-1.65 6.38a102.93 102.93 0 0 1 30.2-75.1z" fill="#00deb9" opacity=".48"></path><path d="M30.28 30.22A102.94 102.94 0 0 0 .12 106.66c.29 8.77 10.73 10.94 17 6.79 27.07-17.91 28.09-75.72 60-101.23A56.23 56.23 0 0 1 99 1.65c2.21-.56 4.67-1.25 6.42-1.63a102.93 102.93 0 0 0-75.1 30.2z" fill="#1d88e1" opacity=".48"></path><path d="M44 187.8c-32.11-55.4 181.83-82.46 145-142a103.71 103.71 0 0 0-26.5-27.07c25.84 44.36-100 69.18-138.89 106.54C12.3 136.12 10.9 151.63 20 164.34a103.82 103.82 0 0 0 24 23.46z" fill="#8e03ff" opacity=".48"></path><path d="M187.75 44c-51.41-29.78-77.2 148.08-127.43 150-4.47.18-9.6-2-14.56-5a103.71 103.71 0 0 1-27.07-26.5C71.5 193.28 96.63 9 148.17 12.54c4.69.32 10.6 3.57 16.11 7.51a104.32 104.32 0 0 1 23.47 24z" fill="#1d88e1" opacity=".48"></path></g></svg></svg> <!----></g></g> <g transform="translate(67,2.122354507446289)"><g data-gra="path-name" fill-rule="" class="tp-name iconsvg-namesvg" transform="translate(0,0)"><g transform="scale(1)"><g><path d="M4.39-32.34L7.21-35.51Q10.02-33.57 14.59-30.06L14.59-30.06 11.78-26.54Q8.61-29.71 4.39-32.34L4.39-32.34ZM21.45-33.4L21.45-33.4 32.17-33.4Q36.39-33.4 37.62-33.75L37.62-33.75Q37.44-31.64 37.44-29.18L37.44-29.18 37.44-22.15Q37.44-19.86 37.62-17.93L37.62-17.93Q37.62-17.58 37.62-17.4L37.62-17.4Q37.62-17.58 31.99-17.58L31.99-17.58 21.8-17.58Q18.98-17.58 16.52-17.4L16.52-17.4Q16-17.4 16-17.4L16-17.4Q16.17-19.34 16.17-22.68L16.17-22.68 16.17-29.53Q16.17-30.94 16-32.87L16-32.87Q16-33.57 16-33.75L16-33.75Q18.28-33.4 21.45-33.4ZM33.93-30.59L19.86-30.59 19.86-26.72 33.93-26.72 33.93-30.59ZM1.76-22.15L4.39-25.31Q7.56-23.91 12.3-20.92L12.3-20.92 9.32-17.4Q7.03-19.51 1.76-22.15L1.76-22.15ZM33.93-24.08L19.86-24.08 19.86-20.39 33.93-20.39 33.93-24.08ZM7.91-14.94L7.91-14.94 11.25-12.83Q9.49-7.03 7.38 0L7.38 0Q7.21 0.88 7.03 2.29L7.03 2.29Q6.86 3.34 6.68 3.34L6.68 3.34 2.64 0.7Q6.5-7.73 7.91-14.94ZM39.55-14.24L39.55-14.24Q39.55-14.06 39.55-13.54L39.55-13.54Q39.2-11.6 39.2-9.84L39.2-9.84 39.2-1.05Q41.13-1.05 42.71-1.41L42.71-1.41Q42.54-1.41 42.89-1.41L42.89-1.41 42.89 1.93Q39.73 1.58 37.97 1.58L37.97 1.58 15.82 1.58Q14.24 1.58 11.07 1.93L11.07 1.93Q13.36 1.58 10.72 1.93L10.72 1.93 10.72-1.41Q11.78-1.05 14.24-1.05L14.24-1.05 14.24-9.67Q14.24-11.95 14.06-14.24L14.06-14.24Q14.06-14.24 14.41-14.24L14.41-14.24Q16.35-13.89 18.46-13.89L18.46-13.89 34.8-13.89Q37.62-13.89 39.55-14.24ZM21.62-1.05L21.62-10.9 17.75-10.9 17.75-1.05 21.62-1.05ZM28.83-10.9L24.79-10.9 24.79-1.05 28.83-1.05 28.83-10.9ZM35.86-10.9L31.82-10.9 31.82-1.05 35.86-1.05 35.86-10.9ZM56.6-35.51L56.6-35.51Q61.52-35.51 61.52-34.98L61.52-34.98Q61.52-34.8 61.35-34.28L61.35-34.28Q60.47-32.7 60.64-31.46L60.64-31.46Q60.64-13.89 59.24-8.09L59.24-8.09Q58.01-2.81 52.03 3.16L52.03 3.16Q50.27 1.23 47.64 1.05L47.64 1.05Q53.44-3.16 55.2-7.73L55.2-7.73Q56.95-12.13 56.95-21.97L56.95-21.97 56.95-30.59Q56.95-34.1 56.6-35.51ZM79.45-35.51L79.45-35.51Q84.38-35.16 84.55-34.98L84.55-34.98Q84.55-34.98 84.38-34.63L84.38-34.63Q83.67-33.22 83.67-31.11L83.67-31.11 83.67-4.22Q83.67 0.53 84.02 3.52L84.02 3.52 79.63 3.52Q79.8 2.11 79.98 0L79.98 0Q79.98-1.93 79.98-4.22L79.98-4.22 79.98-30.76Q79.98-33.4 79.45-35.51ZM67.32-34.45L67.32-34.45Q71.89-34.1 72.07-33.93L72.07-33.93Q72.07-33.75 71.89-33.22L71.89-33.22Q71.37-31.99 71.37-31.11L71.37-31.11 71.37-4.92Q71.37 0 71.72 2.11L71.72 2.11 67.32 2.11Q68.03-0.18 67.85-4.92L67.85-4.92 67.85-29.88Q67.85-32.17 67.32-34.45ZM50.98-26.19L50.98-26.19 55.02-25.66Q54.67-24.08 54.49-22.68L54.49-22.68Q53.61-15.82 52.73-10.72L52.73-10.72Q50.45-11.43 48.52-11.25L48.52-11.25Q50.98-18.63 50.98-26.19ZM61.35-24.26L64.51-24.96Q65.74-19.16 66.62-12.83L66.62-12.83 63.11-12.13Q63.11-18.11 61.35-24.26L61.35-24.26ZM72.77-24.26L76.11-24.96Q78.22-16.7 78.57-12.66L78.57-12.66 74.88-11.78Q74.53-18.46 72.77-24.26L72.77-24.26ZM116.89-36.39L116.89-36.39Q117.25-36.21 118.13-36.04L118.13-36.04Q121.99-35.16 121.64-34.8L121.64-34.8Q121.64-34.63 121.29-34.45L121.29-34.45Q120.59-34.1 120.06-33.22L120.06-33.22Q120.06-33.05 119.88-32.87L119.88-32.87Q118.83-31.29 118.3-30.76L118.3-30.76 124.28-30.76Q128.67-30.76 131.48-31.11L131.48-31.11Q125.86-20.04 118.83-13.36L118.83-13.36 124.8-13.36Q130.61-13.54 130.61-13.54L130.61-13.54Q130.25-10.9 130.25-5.98L130.25-5.98 130.25-2.64Q130.25 1.76 130.61 4.22L130.61 4.22 126.39 4.22Q126.74 2.64 126.74 0.88L126.74 0.88 116.54 0.88Q116.54 2.81 116.89 4.22L116.89 4.22 112.68 4.22Q113.03 2.29 113.03-1.76L113.03-1.76 113.03-8.79Q110.39-6.86 109.34-6.15L109.34-6.15Q108.46-7.73 105.82-9.14L105.82-9.14Q113.38-11.95 117.95-17.23L117.95-17.23Q116.54-19.51 113.38-21.62L113.38-21.62 116.37-24.26Q118.48-21.97 120.23-19.69L120.23-19.69Q122.7-22.68 125.33-27.6L125.33-27.6 116.72-27.6Q113.73-23.2 110.21-20.04L110.21-20.04Q109.51-20.92 107.4-22.85L107.4-22.85Q113.91-26.54 116.89-36.39ZM126.74-10.37L116.54-10.37 116.54-1.58 126.74-1.58 126.74-10.37ZM107.93-22.15L107.93-19.16Q106.35-19.16 102.3-19.16L102.3-19.16 102.3-13.54Q106.88-13.54 108.28-13.89L108.28-13.89 108.28-10.37Q105.82-10.72 102.3-10.72L102.3-10.72 102.3-2.29Q102.66-2.46 103.71-3.16L103.71-3.16Q106.35-4.92 107.75-6.15L107.75-6.15Q107.75-4.75 108.63-2.11L108.63-2.11Q102.48 1.23 99.49 3.87L99.49 3.87Q99.14 4.22 98.96 4.22L98.96 4.22Q98.96 4.22 98.79 3.69L98.79 3.69Q98.09 2.11 97.03 0.53L97.03 0.53Q97.03 0.53 97.38 0.18L97.38 0.18Q98.61-0.53 98.61-1.41L98.61-1.41 98.61-10.72 96.68-10.72Q94.04-10.72 92.11-10.37L92.11-10.37 92.11-13.89Q93.69-13.54 96.5-13.54L96.5-13.54 98.61-13.54 98.61-19.16Q95.45-19.16 95.27-18.98L95.27-18.98 95.27-21.45Q94.92-20.74 93.87-19.69L93.87-19.69Q92.99-20.74 91.41-21.8L91.41-21.8Q97.21-28.3 99.49-36.21L99.49-36.21Q103.89-34.98 104.41-34.28L104.41-34.28Q104.41-34.1 103.89-33.93L103.89-33.93Q103.01-33.57 102.48-32.52L102.48-32.52Q102.13-31.99 101.43-30.94L101.43-30.94Q100.9-29.71 100.55-29.36L100.55-29.36 103.89-29.36Q107.05-29.36 109.34-29.71L109.34-29.71 109.34-26.19Q106.7-26.54 103.54-26.54L103.54-26.54 98.96-26.54Q97.03-23.55 96.15-22.32L96.15-22.32Q97.73-21.97 99.67-21.97L99.67-21.97 102.66-21.97Q104.24-21.97 106.52-22.15L106.52-22.15Q107.58-22.15 107.93-22.15L107.93-22.15ZM156.27-36.39L156.27-36.39Q160.14-35.86 161.02-35.16L161.02-35.16Q161.02-34.98 160.49-34.28L160.49-34.28Q159.26-32.87 158.38-31.29L158.38-31.29 167.52-31.29Q171.39-31.29 174.38-31.46L174.38-31.46Q170.16-23.91 165.76-19.51L165.76-19.51Q171.21-16.35 178.24-15.82L178.24-15.82Q176.66-14.24 175.96-11.43L175.96-11.43Q167.34-13.71 162.95-17.4L162.95-17.4Q158.91-14.41 154.16-12.48L154.16-12.48Q155.57-11.95 158.91-11.95L158.91-11.95 166.64-11.95Q170.51-11.95 172.44-12.3L172.44-12.3Q172.44-12.13 172.44-11.25L172.44-11.25Q172.27-9.49 172.27-8.09L172.27-8.09 172.27-0.7Q172.27 2.81 172.62 4.39L172.62 4.39 168.22 4.39Q168.57 3.69 168.57 1.23L168.57 1.23 156.09 1.23Q156.09 3.16 156.27 4.04L156.27 4.04 152.05 4.04Q152.4 2.29 152.4-0.53L152.4-0.53 152.4-8.09Q152.58-9.49 152.05-11.43L152.05-11.43Q150.47-10.72 149.06-10.37L149.06-10.37Q148.18-12.48 146.25-13.89L146.25-13.89Q154.51-16.17 160.14-19.69L160.14-19.69Q157.5-22.5 155.57-26.37L155.57-26.37Q155.39-26.02 154.69-25.14L154.69-25.14Q152.23-21.62 151-20.04L151-20.04Q149.94-21.27 147.66-21.97L147.66-21.97Q154.16-28.65 156.27-36.39ZM139.39-31.64L142.56-34.45Q145.55-32.17 148.89-28.65L148.89-28.65 145.72-25.84Q142.38-29.88 139.39-31.64L139.39-31.64ZM167.87-28.48L167.87-28.48 157.32-28.48Q160.66-23.03 162.6-21.45L162.6-21.45Q166.11-24.61 167.87-28.48ZM136.76-20.39L139.04-23.55Q142.91-21.62 146.43-19.16L146.43-19.16 143.96-15.47Q142.38-17.05 137.46-20.04L137.46-20.04Q136.93-20.21 136.76-20.39L136.76-20.39ZM143.79-12.83L143.79-12.83Q145.55-11.43 147.3-10.2L147.3-10.2Q145.02-4.57 143.26 1.23L143.26 1.23Q142.38 3.87 142.21 3.87L142.21 3.87Q140.45 2.99 137.99 1.05L137.99 1.05Q141.86-5.1 143.79-12.83ZM168.57-8.96L155.92-8.96 155.92-1.58 168.57-1.58 168.57-8.96Z" transform="translate(-1.7599999904632568, 36.38999938964844)"></path></g> <!----> <!----> <!----> <!----> <!----> <!----> <!----></g></g> <g data-gra="path-slogan" fill-rule="" class="tp-slogan iconsvg-slogansvg" fill="#333" transform="translate(5,46.779998779296875)"><rect x="0" height="1" y="3.9750003814697266" width="20.12500762939453"></rect> <rect height="1" y="3.9750003814697266" width="20.12500762939453" x="146.3550033569336"></rect> <g transform="translate(23.12500762939453,0)"><g transform="scale(1)"><path d="M5.67-7.13L5.63-7.13L3.66 0L2.44 0L0.19-8.58L1.41-8.58L3.05-1.59L3.09-1.59L5.02-8.58L6.28-8.58L8.20-1.59L8.25-1.59L9.84-8.58L11.11-8.58L8.86 0L7.64 0L5.67-7.13ZM13.50-1.03L18.66-1.03L18.66 0L12.33 0L12.33-8.58L18.56-8.58L18.56-7.59L13.50-7.59L13.50-4.92L18.19-4.92L18.19-3.89L13.50-3.89L13.50-1.03ZM21.56-8.58L25.88-1.64L25.88-8.58L27-8.58L27 0L25.69 0L21.33-6.94L21.28-6.94L21.28 0L20.16 0L20.16-8.58L21.56-8.58ZM29.63-1.03L34.92-1.03L34.92 0L28.17 0L28.17-0.94L33.42-7.59L28.55-7.59L28.55-8.58L34.92-8.58L34.92-7.59L29.63-1.03ZM37.22-5.06L41.72-5.06L41.72-8.58L42.89-8.58L42.89 0L41.72 0L41.72-3.98L37.22-3.98L37.22 0L36.05 0L36.05-8.58L37.22-8.58L37.22-5.06ZM51.47-4.27L51.47-4.27Q51.28-7.64 48.47-7.83L48.47-7.83Q45.61-7.69 45.47-4.27L45.47-4.27Q45.61-0.94 48.47-0.80L48.47-0.80Q51.28-0.98 51.47-4.27ZM52.64-4.27L52.64-4.27Q52.36 0 48.47 0.14L48.47 0.14Q44.53 0 44.25-4.27L44.25-4.27Q44.48-8.72 48.47-8.81L48.47-8.81Q52.36-8.67 52.64-4.27ZM59.67-3.19L59.67-8.58L60.84-8.58L60.84-3.05Q60.70 0.05 57.33 0.14L57.33 0.14Q54.19 0.05 54.05-2.86L54.05-2.86L54.05-8.58L55.22-8.58L55.22-3.19Q55.27-0.84 57.38-0.80L57.38-0.80Q59.67-0.84 59.67-3.19L59.67-3.19ZM74.20-8.58L74.20 0L73.08 0L73.08-5.06Q73.08-5.77 73.08-7.22L73.08-7.22L70.64 0L69.47 0L67.08-7.22L67.03-7.22Q67.03-6.70 67.08-5.67L67.08-5.67Q67.08-5.16 67.08-5.06L67.08-5.06L67.08 0L65.91 0L65.91-8.58L67.59-8.58L70.08-1.31L72.52-8.58L74.20-8.58ZM76.08-8.58L77.25-8.58L77.25 0L76.08 0L76.08-8.58ZM80.63-8.58L84.94-1.64L84.94-8.58L86.06-8.58L86.06 0L84.75 0L80.39-6.94L80.34-6.94L80.34 0L79.22 0L79.22-8.58L80.63-8.58ZM94.27-3.61L91.64-3.61L91.64-4.59L95.39-4.59L95.39 0L94.64 0L94.36-1.08Q93.38 0.09 91.55 0.14L91.55 0.14Q89.81 0.14 88.88-0.75L88.88-0.75Q87.47-2.06 87.52-4.36L87.52-4.36Q87.84-8.63 91.59-8.81L91.59-8.81Q94.78-8.63 95.25-6L95.25-6L94.13-6Q93.66-7.78 91.55-7.83L91.55-7.83Q88.88-7.64 88.73-4.31L88.73-4.31Q88.73-0.75 91.59-0.75L91.59-0.75Q92.63-0.75 93.38-1.31L93.38-1.31Q94.31-2.06 94.27-3.61L94.27-3.61ZM97.17-8.58L98.34-8.58L98.34-1.03L102.70-1.03L102.70 0L97.17 0L97.17-8.58ZM109.50-3.19L109.50-8.58L110.67-8.58L110.67-3.05Q110.53 0.05 107.16 0.14L107.16 0.14Q104.02 0.05 103.88-2.86L103.88-2.86L103.88-8.58L105.05-8.58L105.05-3.19Q105.09-0.84 107.20-0.80L107.20-0.80Q109.50-0.84 109.50-3.19L109.50-3.19ZM119.25-4.27L119.25-4.27Q119.06-7.64 116.25-7.83L116.25-7.83Q113.39-7.69 113.25-4.27L113.25-4.27Q113.39-0.94 116.25-0.80L116.25-0.80Q119.06-0.98 119.25-4.27ZM120.42-4.27L120.42-4.27Q120.14 0 116.25 0.14L116.25 0.14Q112.31 0 112.03-4.27L112.03-4.27Q112.27-8.72 116.25-8.81L116.25-8.81Q120.14-8.67 120.42-4.27Z" transform="translate(-0.1875, 8.8125)"></path></g></g></g></g></g><defs v-gra="od"></defs></svg>